<?xml version="1.0" standalone="no"?>
<!DOCTYPE svg PUBLIC "-//W3C//DTD SVG 20010904//EN"
 "http://www.w3.org/TR/2001/REC-SVG-20010904/DTD/svg10.dtd">
<svg version="1.0" xmlns="http://www.w3.org/2000/svg"
 width="1000.000000pt" height="1000.000000pt" viewBox="0 0 1000.000000 1000.000000"
 preserveAspectRatio="xMidYMid meet">

<g transform="translate(0.000000,1000.000000) scale(0.100000,-0.100000)"
fill="#000000" stroke="none">
<path d="M2561 5950 c-13 -11 -20 -20 -17 -20 3 0 -6 -14 -21 -31 -15 -17 -29
-26 -31 -20 -6 19 -22 12 -32 -15 -7 -17 -15 -24 -25 -20 -9 3 -15 -1 -15 -10
0 -9 -5 -14 -12 -12 -7 3 -30 -15 -53 -39 -38 -39 -77 -60 -59 -31 4 7 3 8 -5
4 -6 -4 -9 -10 -7 -14 5 -9 -20 -33 -27 -26 -3 3 -8 -4 -12 -15 -3 -12 -11
-21 -16 -21 -6 0 -7 5 -4 10 3 6 2 10 -3 10 -6 0 -13 -7 -16 -16 -4 -10 -2
-13 6 -8 8 5 9 2 5 -10 -4 -10 -7 -20 -7 -22 0 -2 -4 -4 -10 -4 -5 0 -10 6
-10 14 0 8 -7 16 -15 20 -13 5 -14 2 -4 -17 9 -18 9 -20 -1 -10 -11 10 -18 6
-38 -20 -14 -18 -22 -24 -19 -14 11 31 -16 13 -42 -28 -12 -20 -12 -20 -7 0 5
17 1 20 -23 20 -17 1 -27 -4 -25 -10 3 -5 -2 -1 -10 9 -9 11 -16 14 -16 8 0
-10 -9 -11 -49 -3 -2 1 3 9 10 18 12 14 12 16 0 8 -11 -6 -13 -2 -9 18 3 15 2
25 -1 23 -3 -3 -14 2 -24 9 -17 12 -17 15 -3 38 15 21 15 26 2 36 -10 9 -13
22 -9 42 3 18 1 29 -5 29 -6 0 -9 7 -6 15 4 8 1 15 -4 15 -14 0 -25 -37 -16
-51 4 -7 3 -9 -3 -6 -14 9 -27 -9 -44 -55 -7 -21 -17 -38 -23 -38 -5 0 -7 -3
-3 -6 3 -4 -6 -36 -20 -73 -14 -36 -36 -102 -50 -146 -14 -44 -28 -84 -32 -90
-3 -5 -13 -39 -23 -75 -9 -36 -28 -105 -42 -155 -41 -144 -135 -600 -136 -657
0 -15 -9 -65 -19 -110 -11 -46 -24 -128 -31 -183 -6 -55 -13 -118 -15 -140 -6
-48 -4 -44 30 70 29 93 46 141 122 335 53 133 217 463 298 598 130 217 335
485 511 672 121 127 152 161 170 185 10 13 22 21 27 18 6 -3 7 -1 3 5 -9 15
-6 15 -35 -8z"/>
<path d="M2065 5620 c4 -6 11 -8 16 -5 14 9 11 15 -7 15 -8 0 -12 -5 -9 -10z"/>
<path d="M1461 3664 c0 -11 3 -14 6 -6 3 7 2 16 -1 19 -3 4 -6 -2 -5 -13z"/>
<path d="M1441 3647 c-1 -10 -5 -16 -10 -12 -12 7 -11 18 -17 -245 -4 -134 -1
-249 6 -305 28 -217 43 -308 70 -420 16 -66 39 -160 51 -210 11 -49 25 -94 29
-100 4 -5 15 -32 24 -60 59 -190 188 -480 289 -650 74 -125 140 -230 147 -235
9 -8 130 -171 130 -176 0 -2 8 -12 18 -22 9 -10 49 -54 87 -97 99 -111 168
-181 254 -256 41 -35 99 -85 128 -111 29 -27 57 -48 61 -48 4 0 39 -22 77 -50
151 -107 173 -121 245 -160 205 -111 498 -239 615 -270 28 -7 54 -17 59 -21 6
-5 17 -9 25 -9 9 0 54 -11 101 -24 236 -68 560 -122 855 -143 114 -8 524 -7
625 1 250 20 482 52 620 86 41 10 95 21 120 25 25 3 77 17 117 31 39 13 83 24
97 24 13 0 27 4 30 9 3 4 34 16 68 25 61 16 106 33 216 82 29 13 55 24 59 24
8 0 108 45 148 66 250 135 487 290 576 376 24 24 57 53 73 66 34 26 30 36 -10
26 -25 -6 -26 -8 -9 -15 15 -6 16 -8 4 -8 -9 -1 -24 -10 -34 -21 -10 -12 -24
-19 -31 -16 -8 3 -11 -1 -7 -10 3 -10 -2 -14 -18 -14 -33 0 -53 -15 -44 -30 5
-8 4 -11 -3 -6 -6 3 -13 2 -16 -3 -3 -5 -15 -7 -26 -4 -14 4 -20 0 -20 -10 0
-11 -7 -14 -24 -11 -18 3 -30 -3 -45 -22 -12 -15 -21 -22 -21 -15 0 6 -5 11
-11 11 -6 0 -8 -7 -5 -16 5 -14 4 -15 -9 -4 -12 10 -15 10 -15 0 0 -7 -8 -10
-19 -7 -10 2 -18 -1 -18 -7 1 -30 -4 -46 -13 -46 -5 0 -7 7 -4 15 4 10 0 15
-11 15 -11 0 -15 -5 -12 -14 4 -10 1 -13 -7 -10 -7 3 -19 -2 -26 -10 -7 -9
-17 -13 -22 -10 -5 4 -21 1 -34 -7 -18 -9 -21 -15 -12 -21 9 -5 7 -8 -7 -9
-11 -1 -26 -1 -33 0 -7 1 -15 -5 -18 -13 -3 -9 -9 -14 -13 -11 -4 2 -30 -7
-57 -20 -27 -14 -57 -25 -66 -25 -10 0 -18 -4 -18 -8 0 -4 -9 -8 -19 -9 -14
-1 -18 3 -14 13 4 10 0 12 -11 8 -9 -3 -13 -10 -10 -15 3 -5 -2 -6 -10 -3 -9
3 -16 2 -16 -4 0 -5 -12 -8 -27 -6 -17 2 -36 -5 -48 -15 -11 -10 -31 -22 -45
-26 -22 -7 -23 -6 -11 8 7 9 17 14 22 11 5 -3 9 0 9 5 0 14 -3 14 -32 -1 -13
-7 -24 -17 -25 -23 -1 -5 -6 -11 -12 -13 -6 -2 -8 3 -5 11 5 13 -3 13 -48 -3
-133 -45 -158 -51 -168 -45 -5 3 -10 2 -10 -2 0 -5 -8 -10 -17 -11 -25 -2 -45
-8 -65 -16 -9 -4 -21 -5 -26 -2 -6 3 -24 1 -42 -5 -22 -8 -38 -8 -55 -1 -18 8
-26 8 -36 -4 -10 -12 -9 -13 7 -8 10 4 16 4 13 0 -4 -4 -16 -8 -27 -11 -16 -3
-20 0 -16 13 5 16 5 16 -8 0 -16 -19 -48 -26 -66 -15 -8 5 -24 -2 -44 -18
l-32 -27 -9 24 c-9 19 -11 20 -14 6 -5 -20 -18 -23 -28 -8 -8 13 -25 13 -25
-1 0 -5 6 -7 13 -3 7 4 7 2 -2 -7 -11 -11 -14 -11 -18 -1 -4 10 -8 9 -17 -4
-10 -13 -15 -14 -21 -4 -5 8 -4 11 2 7 5 -3 10 0 10 8 0 10 -5 11 -19 4 -10
-6 -16 -15 -12 -20 3 -6 -3 -5 -14 2 -17 10 -28 10 -62 -4 -26 -10 -38 -11
-32 -4 8 9 1 12 -24 14 -19 1 -34 -3 -34 -8 0 -13 -25 -6 -26 7 0 5 -6 20 -12
34 -8 18 -11 20 -11 8 -1 -10 -7 -18 -13 -19 -7 -1 -2 -5 12 -9 l25 -8 -25 -1
c-20 -1 -22 -3 -10 -12 11 -7 2 -9 -32 -6 -31 2 -49 -1 -52 -9 -5 -12 -22 -14
-41 -3 -5 3 -27 5 -48 3 -20 -1 -40 2 -43 7 -9 14 -37 10 -31 -4 3 -8 -1 -14
-8 -14 -7 0 -11 7 -8 16 4 13 2 13 -10 -1 -20 -25 -28 -22 -23 5 8 47 -3 51
-158 54 -80 1 -191 7 -248 14 -57 6 -115 11 -130 10 -22 -1 -26 2 -22 16 4 13
3 14 -3 5 -11 -15 -93 -13 -93 2 0 7 -3 7 -8 1 -9 -13 -35 -19 -28 -6 4 5 2
12 -4 16 -5 3 -10 2 -10 -3 0 -10 -28 -13 -50 -5 -8 4 -23 7 -32 8 -10 2 -22
3 -28 4 -5 0 -6 9 -3 19 6 15 5 16 -12 2 -11 -9 -16 -10 -11 -2 4 6 2 12 -3
12 -6 0 -11 -6 -11 -12 0 -8 -3 -9 -8 -3 -4 6 -22 11 -41 12 -18 1 -40 8 -47
14 -12 10 -13 8 -8 -7 6 -15 4 -17 -6 -7 -11 10 -11 15 0 27 10 13 8 17 -11
26 -23 10 -23 10 -1 6 12 -2 22 0 22 5 0 9 -17 12 -55 10 -11 0 -14 2 -7 5 17
8 15 17 -7 43 -12 13 -22 18 -26 11 -9 -15 -25 -12 -25 5 0 8 -6 15 -13 15
-25 0 -27 -13 -6 -41 11 -16 16 -29 10 -29 -6 0 -11 4 -11 10 0 5 -8 7 -17 4
-15 -5 -16 -4 -3 5 13 9 13 12 1 20 -7 5 -11 13 -9 17 3 5 2 18 -3 29 -6 16
-8 14 -8 -12 -1 -18 -5 -33 -9 -33 -17 0 -21 13 -11 32 9 16 6 25 -17 49 -15
16 -34 29 -42 29 -11 0 -10 3 2 16 9 8 16 18 16 20 0 8 -44 -18 -52 -30 -5 -8
-8 -7 -9 2 -1 6 -2 18 -3 25 -1 6 -8 11 -15 9 -9 -2 -11 3 -7 15 4 12 -1 10
-15 -7 -11 -14 -18 -20 -15 -14 3 7 -5 15 -19 18 -17 4 -23 11 -18 23 5 13 2
15 -14 11 -12 -3 -33 2 -50 13 -15 10 -23 19 -17 19 6 0 10 13 10 29 0 17 -3
28 -7 25 -4 -2 -11 1 -14 7 -4 5 -13 8 -21 5 -8 -3 -14 -1 -14 5 0 7 -10 9
-24 5 -14 -3 -28 -1 -31 4 -4 6 -1 9 6 8 6 -2 14 3 17 11 3 9 0 11 -8 6 -9 -6
-12 -4 -8 7 4 8 -2 20 -14 27 -11 7 -17 8 -14 2 4 -5 2 -12 -4 -16 -5 -3 -10
-1 -10 5 0 8 -6 8 -20 0 -11 -6 -20 -7 -20 -3 0 4 -5 1 -11 -7 -8 -12 -9 -10
-4 8 4 14 2 22 -6 22 -7 0 -10 3 -7 6 4 3 16 0 28 -6 18 -10 24 -9 31 1 11 18
2 28 -20 22 -10 -3 -22 0 -25 6 -4 6 0 11 8 11 9 0 16 5 16 11 0 5 -4 7 -10 4
-5 -3 -10 3 -10 14 0 18 -3 19 -26 11 -14 -6 -23 -6 -20 -1 3 5 -2 12 -11 15
-14 6 -14 8 3 21 16 13 16 14 2 9 -13 -4 -18 -1 -18 12 0 13 -8 19 -26 21 -27
1 -70 33 -46 33 7 0 10 5 7 11 -5 6 -11 4 -19 -6 -8 -11 -20 -14 -37 -10 -21
5 -25 11 -21 31 2 13 8 24 12 24 5 0 6 -10 3 -21 -5 -19 -4 -20 16 -9 33 17
23 43 -17 44 -18 1 -31 -3 -28 -9 2 -6 -8 -16 -21 -22 -24 -12 -25 -11 -9 6 9
10 16 25 16 35 0 11 5 15 13 10 7 -4 9 -3 4 2 -12 12 -30 12 -39 -1 -5 -6 -8
-6 -8 2 0 7 6 16 13 20 10 6 9 12 -5 26 -13 12 -19 13 -17 5 3 -25 -1 -38 -12
-38 -8 0 -9 4 0 13 6 8 7 17 3 21 -4 4 0 13 10 20 14 10 14 15 2 36 -8 15 -13
19 -14 10 0 -13 -1 -13 -10 0 -8 13 -10 12 -10 -4 0 -12 5 -16 15 -12 19 7 20
-8 1 -23 -11 -9 -15 -7 -19 10 -5 19 -8 19 -29 6 -13 -7 -29 -13 -35 -12 -7 2
-23 3 -35 4 -30 1 -18 10 20 15 21 2 29 0 25 -8 -3 -6 -2 -7 3 -3 5 5 9 14 9
20 0 7 5 12 12 12 7 0 17 5 24 12 8 8 2 10 -26 7 -30 -2 -35 -1 -25 11 7 9 8
15 0 20 -5 3 -10 2 -10 -3 0 -5 -8 -12 -19 -15 -14 -3 -18 1 -18 18 0 17 5 21
23 19 14 -1 21 2 18 8 -3 5 -8 7 -11 4 -3 -3 -15 0 -26 5 -18 10 -19 9 -15
-15 6 -31 -8 -35 -17 -5 -5 16 -10 18 -21 8 -10 -8 -14 -8 -14 0 0 6 12 14 26
17 17 4 22 10 16 16 -6 6 -16 7 -23 2 -17 -10 -75 -16 -65 -7 4 5 11 8 14 8 4
0 13 4 19 8 7 5 23 10 34 12 28 6 37 15 15 15 -9 0 -14 5 -11 10 3 6 -1 10
-10 10 -10 0 -14 -5 -10 -12 4 -7 -1 -4 -9 6 -14 18 -16 18 -16 3 0 -14 -3
-15 -19 -5 -14 8 -16 14 -7 24 6 6 14 10 18 8 5 -3 4 14 -2 36 -1 3 -5 -5 -10
-17 -10 -26 -27 -31 -27 -8 0 8 5 11 11 8 6 -4 5 0 -1 9 -7 8 -10 18 -7 21 3
3 -4 16 -16 29 -13 13 -20 17 -15 10 5 -10 1 -13 -16 -10 -13 2 -23 9 -21 16
2 14 -25 17 -30 3 -1 -5 -10 -2 -18 7 -13 14 -12 15 3 9 18 -7 24 8 7 18 -6 4
-5 13 2 25 15 23 5 35 -19 25 -17 -7 -17 -7 0 -14 16 -6 16 -9 5 -18 -15 -12
-50 -14 -42 -2 2 4 -1 9 -7 11 -9 3 -9 10 0 27 7 12 10 25 7 29 -3 3 -6 0 -6
-6 0 -19 -18 -14 -23 6 -4 13 -5 11 -6 -5 0 -13 -6 -23 -11 -23 -6 0 -8 -11
-6 -25 3 -14 1 -23 -5 -20 -5 4 -9 23 -9 43 0 29 3 34 11 22 8 -12 9 -9 5 13
-4 18 -2 27 6 27 9 0 8 3 -2 10 -11 7 -11 10 -2 10 7 0 10 4 7 10 -7 12 -26
14 -24 3 3 -20 -2 -24 -16 -13 -15 13 -21 45 -7 36 5 -3 9 1 9 9 0 25 -27 17
-28 -7 0 -13 -3 -17 -6 -11 -3 9 -10 10 -23 3 -13 -7 -21 -7 -25 0 -4 6 -3 10
2 9 21 -4 24 3 10 25 -15 23 -15 23 24 20 21 -2 39 2 39 7 0 6 -4 8 -9 4 -5
-3 -17 2 -25 11 -9 8 -16 11 -16 5 0 -6 -9 -11 -19 -11 -12 0 -21 -9 -25 -25
l-7 -26 -28 28 c-28 28 -32 57 -6 47 7 -3 11 -14 8 -25 -4 -12 0 -19 10 -19 8
0 17 8 19 18 7 24 -43 46 -63 28 -9 -8 -10 -8 -5 1 4 7 -1 25 -11 40 -10 15
-12 24 -5 20 8 -6 11 -2 9 13 -4 27 -22 45 -31 31 -4 -6 0 -11 9 -11 9 0 13
-5 10 -10 -4 -6 -11 -7 -17 -4 -7 4 -8 2 -4 -4 4 -7 1 -12 -8 -12 -9 0 -16 -6
-16 -12 0 -9 -4 -8 -10 2 -7 11 -5 18 6 26 8 7 13 17 12 24 -2 7 8 16 22 20
l25 6 -28 7 c-18 5 -25 12 -20 20 4 7 -1 5 -11 -3 -10 -8 -26 -15 -34 -15 -8
0 -17 -6 -19 -12 -6 -18 17 -16 39 4 15 13 18 14 18 2 0 -26 -21 -38 -46 -29
-15 6 -24 5 -28 -3 -3 -7 -3 -1 1 13 5 22 4 23 -10 11 -9 -7 -14 -18 -10 -24
3 -6 1 -7 -5 -3 -7 4 -12 22 -11 39 1 27 2 29 7 9 l7 -23 17 21 c10 11 17 26
15 33 -1 7 7 11 18 10 11 -1 15 0 8 3 -7 3 -10 11 -7 18 3 7 -3 19 -13 26 -15
12 -16 12 -5 0 15 -18 16 -34 0 -24 -6 4 -9 3 -6 -2 3 -5 -1 -15 -9 -23 -13
-12 -14 -11 -9 6 5 14 1 23 -11 28 -17 7 -17 8 -1 14 15 5 14 8 -7 17 -13 7
-24 9 -23 5 2 -22 -4 -22 -19 -2 l-16 24 -8 -21 c-5 -14 -14 -20 -24 -16 -24
9 -18 29 13 40 l27 10 -32 0 c-18 -1 -33 -5 -33 -10 0 -5 -3 -6 -7 -3 -3 4
-12 2 -19 -4 -10 -8 -12 -6 -9 13 4 21 3 21 -9 6 -18 -24 -29 -23 -16 1 13 26
13 34 -2 25 -7 -4 -4 2 6 14 14 17 16 22 5 22 -11 0 -12 2 -1 9 11 6 10 10 -3
15 -14 5 -16 2 -11 -20 5 -19 4 -24 -6 -18 -7 5 -23 7 -36 5 -21 -2 -22 -1
-12 19 8 14 17 19 28 15 9 -3 13 -2 8 2 -10 11 -66 12 -60 1 3 -5 11 -5 17 -2
7 4 9 3 4 -1 -10 -11 -68 -14 -61 -3 3 5 10 6 15 3 5 -4 9 5 9 18 0 14 -7 28
-16 31 -15 6 -15 4 -3 -10 11 -14 10 -19 -9 -34 l-22 -19 21 -6 c11 -4 23 -4
26 -1 3 3 12 -2 21 -10 8 -9 25 -14 39 -11 12 2 23 0 23 -4 0 -5 -7 -9 -16 -9
-8 0 -12 -5 -9 -10 4 -6 10 -8 14 -6 4 3 8 -12 8 -32 l2 -37 -11 30 c-13 38
-14 38 -28 30 -8 -5 -8 -11 -1 -19 8 -9 7 -13 -4 -13 -8 0 -12 4 -9 8 2 5 -9
15 -27 24 -24 13 -30 13 -27 3 3 -7 11 -13 18 -13 7 0 15 -7 17 -15 3 -10 2
-11 -4 -4 -4 6 -16 10 -25 8 -12 -1 -18 4 -18 16 0 21 -23 33 -38 18 -12 -12
-52 6 -52 24 0 7 5 6 15 -2 14 -11 19 -7 16 13 -2 12 16 8 29 -7 6 -8 17 -13
25 -10 7 3 16 1 20 -5 3 -6 15 -11 26 -11 10 0 19 -5 19 -11 0 -5 5 -7 10 -4
15 9 12 25 -5 25 -8 0 -15 4 -15 9 0 5 -8 8 -17 6 -10 -1 -27 2 -38 8 -11 6
-23 11 -27 12 -3 0 -10 4 -15 8 -8 9 -9 13 -12 42 0 8 -5 15 -11 15 -5 0 -7
-7 -4 -15 5 -11 2 -14 -12 -9 -28 10 -44 25 -38 35 3 5 1 9 -4 9 -11 0 -21 22
-28 59 -11 53 -38 79 -47 44 -4 -14 -5 -13 -6 4 0 12 -6 23 -11 25 -7 2 -4 11
5 23 16 20 16 20 10 -1 -3 -14 -1 -21 9 -21 14 0 11 21 -7 44 -10 14 -31 7
-22 -7 3 -5 -3 -14 -14 -20 -16 -8 -22 -7 -31 9 -16 30 -12 36 10 16 11 -10
20 -13 20 -7 0 7 -5 12 -11 12 -6 0 -9 7 -6 15 8 19 -13 31 -24 14 -7 -11 -9
-11 -9 -1 0 8 -5 10 -12 6 -10 -5 -10 -4 -1 6 18 20 -5 60 -34 60 -13 0 -22 4
-19 8 3 5 1 26 -5 46 -8 28 -13 35 -23 27 -9 -7 -12 -2 -14 20 -2 21 1 28 9
23 8 -4 9 -3 5 5 -4 6 -11 9 -16 6 -9 -6 -14 9 -24 75 -15 92 -19 111 -28 116
-5 3 -6 -6 -2 -22 4 -17 3 -25 -3 -21 -13 8 -24 62 -17 82 3 8 11 12 17 8 6
-3 7 -1 3 5 -4 6 -13 9 -21 6 -8 -4 -13 -9 -11 -13 3 -4 0 -13 -5 -21 -6 -10
-8 -4 -4 19 5 27 3 32 -7 23 -10 -8 -13 -5 -14 11 0 12 -4 31 -8 42 -6 16 -6
17 3 5 7 -9 11 -11 11 -3 0 7 -8 16 -17 21 -9 6 -18 17 -19 26 -1 9 2 14 7 10
5 -3 9 2 9 11 0 9 -4 14 -9 10 -6 -3 -10 3 -10 12 -2 49 -27 184 -33 177 -5
-4 -8 -2 -8 4 0 6 4 13 10 17 12 7 2 35 -12 32 -10 -2 -13 23 -22 181 -2 39
-8 72 -12 71 -5 0 -11 8 -15 18 -7 17 -8 17 -8 0z m22 -32 c-3 -9 -8 -14 -10
-11 -3 3 -2 9 2 15 9 16 15 13 8 -4z m182 -753 c-3 -3 -11 0 -18 7 -9 10 -8
11 6 5 10 -3 15 -9 12 -12z m265 -458 c0 -8 -5 -12 -10 -9 -6 4 -8 11 -5 16 9
14 15 11 15 -7z m-3 -66 c-3 -7 -5 -2 -5 12 0 14 2 19 5 13 2 -7 2 -19 0 -25z
m119 -75 c-4 -23 -32 -29 -40 -8 -3 9 -2 14 2 11 4 -2 14 -1 22 5 19 11 19 12
16 -8z m51 -92 c0 -11 -5 -18 -9 -15 -4 3 -5 11 -1 19 7 21 12 19 10 -4z m218
-52 c4 -5 9 -7 13 -5 9 6 7 -52 -2 -62 -4 -4 -6 0 -4 8 2 9 -3 14 -11 12 -12
-3 -12 0 -2 12 24 29 -10 45 -46 23 -7 -5 -13 -4 -13 2 0 17 56 26 65 10z m79
-5 c9 -4 22 -16 28 -28 11 -20 10 -20 -9 -3 -11 9 -23 14 -26 11 -4 -4 0 -12
8 -18 13 -9 11 -11 -8 -11 -19 0 -23 4 -19 25 3 20 1 22 -7 10 -9 -13 -11 -13
-11 3 0 18 16 22 44 11z m-210 -40 c3 -8 2 -12 -4 -9 -6 3 -10 10 -10 16 0 14
7 11 14 -7z m211 -62 c-8 -8 -25 10 -19 20 4 6 9 5 15 -3 4 -7 6 -15 4 -17z
m106 -49 c0 -5 2 -16 4 -26 2 -9 -1 -15 -6 -11 -5 3 -9 12 -9 20 0 9 -5 12
-12 8 -7 -4 -8 -3 -4 4 8 13 26 16 27 5z m69 -53 c0 -5 -5 -10 -11 -10 -5 0
-7 5 -4 10 3 6 8 10 11 10 2 0 4 -4 4 -10z m45 -88 c-3 -3 -11 0 -18 7 -9 10
-8 11 6 5 10 -3 15 -9 12 -12z m175 -79 c0 -1 -8 -7 -18 -12 -13 -7 -19 -6
-19 2 0 7 9 13 19 13 10 0 18 -1 18 -3z m74 -131 c3 -5 -1 -9 -9 -9 -8 0 -12
4 -9 9 3 4 7 8 9 8 2 0 6 -4 9 -8z m66 -52 c0 -5 -2 -10 -4 -10 -3 0 -8 5 -11
10 -3 6 -1 10 4 10 6 0 11 -4 11 -10z m57 -20 c-1 -11 -5 -20 -9 -20 -4 0 -9
-10 -9 -22 -1 -17 -3 -18 -6 -6 -2 9 0 26 6 37 8 14 8 21 -2 24 -7 3 -5 6 5 6
11 1 16 -6 15 -19z m-127 -26 c0 -8 -19 -13 -24 -6 -3 5 1 9 9 9 8 0 15 -2 15
-3z m180 -77 c11 -5 9 -6 -4 -4 -11 1 -21 9 -23 17 -3 10 -2 11 4 4 4 -6 15
-14 23 -17z m0 -53 c0 -8 -19 -13 -24 -6 -3 5 1 9 9 9 8 0 15 -2 15 -3z m50
-44 c0 -5 -4 -10 -10 -10 -5 0 -10 5 -10 10 0 6 5 10 10 10 6 0 10 -4 10 -10z
m100 -34 c-6 -9 -19 -12 -28 -8 -17 6 -14 7 37 21 2 1 -2 -5 -9 -13z m50 -120
c0 -2 -6 -9 -14 -15 -11 -9 -16 -9 -22 0 -4 7 -3 9 4 5 6 -3 13 -2 17 4 6 10
15 14 15 6z m186 -138 c4 -7 4 -10 -1 -6 -4 4 -17 3 -29 -3 -20 -10 -20 -10
-2 5 24 19 23 19 32 4z m-61 -8 c3 -6 -1 -7 -9 -4 -18 7 -21 14 -7 14 6 0 13
-4 16 -10z m85 -10 c0 -5 -5 -10 -11 -10 -5 0 -7 5 -4 10 3 6 8 10 11 10 2 0
4 -4 4 -10z m18 -55 c-3 -3 -9 2 -12 12 -6 14 -5 15 5 6 7 -7 10 -15 7 -18z
m-18 -5 c0 -5 -4 -10 -10 -10 -5 0 -10 5 -10 10 0 6 5 10 10 10 6 0 10 -4 10
-10z m69 -14 c10 -12 9 -14 -5 -12 -10 2 -20 8 -22 14 -5 17 13 15 27 -2z
m176 -176 l20 -25 -22 19 c-13 11 -23 24 -23 29 0 6 1 8 3 6 1 -2 11 -15 22
-29z m45 11 c0 -6 -4 -13 -10 -16 -5 -3 -10 1 -10 9 0 9 5 16 10 16 6 0 10 -4
10 -9z m-86 -35 c-3 -9 -10 -16 -15 -16 -5 0 -4 9 3 20 14 22 21 20 12 -4z
m66 -10 c0 -2 -7 -7 -16 -10 -8 -3 -12 -2 -9 4 6 10 25 14 25 6z m-10 -30 c0
-3 -4 -8 -10 -11 -5 -3 -10 -1 -10 4 0 6 5 11 10 11 6 0 10 -2 10 -4z m3494
-14 c3 -5 -1 -9 -9 -9 -8 0 -12 4 -9 9 3 4 7 8 9 8 2 0 6 -4 9 -8z m-3399 -43
c-10 -15 -25 -10 -19 6 4 8 10 12 15 9 5 -3 7 -10 4 -15z m95 -32 c0 -5 -4 -5
-10 -2 -5 3 -10 14 -10 23 0 15 2 15 10 2 5 -8 10 -19 10 -23z m-44 -3 c1 -9
0 -13 -4 -10 -3 4 -7 14 -8 22 -1 9 0 13 4 10 3 -4 7 -14 8 -22z m78 -5 c-5
-9 1 -10 20 -5 15 4 26 2 26 -4 0 -5 -5 -10 -12 -10 -13 0 -2 -14 13 -16 5 -1
13 -2 19 -3 13 -2 1 -28 -16 -35 -12 -5 -12 -2 -3 15 9 17 8 20 -2 14 -21 -14
-54 -13 -67 1 -10 11 -10 14 -1 14 7 0 9 3 6 7 -4 3 -2 12 4 20 14 16 23 17
13 2z m-104 -15 c0 -8 5 -12 10 -9 6 3 10 4 10 1 0 -16 -21 -13 -30 4 -7 13
-7 20 0 20 5 0 10 -7 10 -16z m298 -99 c-3 -14 -1 -28 4 -31 6 -4 5 -10 -3
-15 -11 -7 -10 -9 3 -9 9 0 19 6 21 13 3 7 6 5 6 -5 1 -10 -5 -18 -13 -18 -8
0 -20 -2 -28 -3 -7 -2 -10 -2 -6 0 9 6 -2 33 -14 33 -5 0 -6 -6 -2 -12 5 -10
4 -10 -6 -1 -7 6 -19 9 -26 6 -8 -3 -14 0 -14 5 0 6 9 9 19 7 14 -3 22 5 30
26 12 36 35 39 29 4z m2302 -99 c0 -3 -4 -8 -10 -11 -5 -3 -10 -1 -10 4 0 6 5
11 10 11 6 0 10 -2 10 -4z m-1635 -124 c-3 -3 -11 0 -18 7 -9 10 -8 11 6 5 10
-3 15 -9 12 -12z m72 3 c0 -8 -4 -12 -9 -9 -5 3 -6 10 -3 15 9 13 12 11 12 -6z
m160 -11 c-9 -9 -28 6 -21 18 4 6 10 6 17 -1 6 -6 8 -13 4 -17z m51 14 c9 -9
12 -9 12 1 0 7 5 9 10 6 14 -9 12 -25 -2 -25 -15 1 -56 30 -42 30 6 0 15 -5
22 -12z m-85 -32 c4 -10 1 -13 -8 -9 -8 3 -12 9 -9 14 7 12 11 11 17 -5z m87
-6 c0 -5 -5 -10 -11 -10 -5 0 -7 5 -4 10 3 6 8 10 11 10 2 0 4 -4 4 -10z m34
2 c3 -5 -1 -9 -9 -9 -8 0 -12 4 -9 9 3 4 7 8 9 8 2 0 6 -4 9 -8z"/>
<path d="M3910 580 c20 -13 33 -13 25 0 -3 6 -14 10 -23 10 -15 0 -15 -2 -2
-10z"/>
<path d="M1683 2775 c0 -8 4 -12 9 -9 5 3 6 10 3 15 -9 13 -12 11 -12 -6z"/>
<path d="M2116 2364 c-3 -8 1 -22 9 -30 8 -9 15 -11 15 -5 0 5 -4 12 -10 16
-5 3 -7 12 -3 20 3 8 3 15 0 15 -3 0 -8 -7 -11 -16z"/>
<path d="M2066 2342 c-4 -7 -5 -16 -1 -21 3 -5 1 -12 -4 -16 -5 -3 -9 -14 -8
-25 1 -10 5 -16 9 -14 5 3 8 11 7 17 -1 7 1 20 5 29 10 22 3 48 -8 30z"/>
<path d="M2160 2325 c-7 -9 -11 -17 -9 -20 3 -2 10 5 17 15 14 24 10 26 -8 5z"/>
<path d="M2335 2231 c6 -11 4 -13 -8 -8 -10 3 -17 2 -17 -3 0 -5 10 -12 23
-15 12 -4 32 -17 45 -28 35 -32 26 -14 -14 29 -20 22 -33 33 -29 25z"/>
<path d="M2270 2226 c0 -2 7 -7 16 -10 8 -3 12 -2 9 4 -6 10 -25 14 -25 6z"/>
<path d="M2250 2211 c0 -5 5 -13 10 -16 6 -4 8 -11 5 -16 -9 -14 1 -11 14 5
10 12 8 17 -8 26 -13 6 -21 7 -21 1z"/>
<path d="M2530 2060 c0 -11 5 -20 11 -20 5 0 7 5 4 10 -3 6 -1 10 5 10 6 0 8
5 5 10 -10 17 -25 11 -25 -10z"/>
<path d="M2457 2046 c-4 -10 0 -12 14 -9 10 3 16 9 13 14 -8 13 -21 11 -27 -5z"/>
<path d="M2578 2012 c-11 -15 -11 -16 4 -4 13 10 17 10 20 0 3 -8 6 -9 11 -1
12 18 -21 23 -35 5z"/>
<path d="M2902 1963 c17 -41 30 -53 17 -15 -6 18 -15 35 -20 38 -5 3 -4 -7 3
-23z"/>
<path d="M2584 1962 c4 -7 3 -18 -2 -25 -8 -9 -4 -15 14 -24 13 -6 22 -7 18
-2 -9 16 8 10 20 -7 10 -13 12 -13 12 5 0 11 -4 18 -7 15 -4 -2 -10 0 -14 6
-4 6 -11 7 -17 4 -6 -4 -8 -2 -5 3 4 6 -1 17 -10 24 -13 11 -15 11 -9 1z"/>
<path d="M2960 1826 c0 -11 40 -86 45 -86 3 0 -4 19 -16 43 -23 45 -29 54 -29
43z"/>
<path d="M2765 1811 c-3 -5 -2 -12 3 -15 5 -3 9 1 9 9 0 17 -3 19 -12 6z"/>
<path d="M2900 1780 c-8 -5 -12 -12 -9 -15 4 -3 12 1 19 10 14 17 11 19 -10 5z"/>
<path d="M2856 1735 c4 -8 8 -15 10 -15 2 0 4 7 4 15 0 8 -4 15 -10 15 -5 0
-7 -7 -4 -15z"/>
<path d="M2896 1688 c3 -5 10 -6 15 -3 13 9 11 12 -6 12 -8 0 -12 -4 -9 -9z"/>
<path d="M2825 1670 c-3 -5 -1 -10 4 -10 6 0 11 5 11 10 0 6 -2 10 -4 10 -3 0
-8 -4 -11 -10z"/>
<path d="M2915 1660 c-7 -12 2 -30 16 -30 5 0 9 5 9 11 0 5 -5 7 -12 3 -8 -5
-9 -2 -5 9 7 19 2 23 -8 7z"/>
<path d="M3040 1664 c0 -5 7 -19 15 -30 8 -10 15 -14 15 -8 0 5 -7 19 -15 30
-8 10 -15 14 -15 8z"/>
<path d="M3079 1595 c5 -11 17 -29 26 -40 l16 -20 -10 20 c-5 11 -17 29 -26
40 l-16 20 10 -20z"/>
<path d="M3070 1520 c-9 -6 -10 -10 -3 -10 6 0 15 5 18 10 8 12 4 12 -15 0z"/>
<path d="M3135 1506 c10 -14 19 -26 22 -26 7 0 -17 39 -28 46 -6 3 -3 -5 6
-20z"/>
<path d="M3070 1492 c0 -4 13 -8 29 -7 16 0 27 3 24 7 -6 11 -53 10 -53 0z"/>
<path d="M3109 1452 c12 -22 31 -22 31 0 0 6 -3 8 -7 5 -3 -4 -13 -1 -21 6
-13 10 -14 9 -3 -11z"/>
<path d="M3190 1431 c0 -6 4 -13 10 -16 6 -3 7 1 4 9 -7 18 -14 21 -14 7z"/>
<path d="M3100 1415 c7 -8 22 -15 33 -15 27 0 10 19 -22 25 -19 3 -21 2 -11
-10z"/>
<path d="M3220 1375 c13 -14 25 -25 27 -25 2 0 -4 11 -13 25 -9 14 -21 25 -27
25 -6 0 0 -11 13 -25z"/>
<path d="M3183 1374 c9 -3 15 -9 12 -14 -3 -5 -1 -11 4 -14 5 -4 8 2 7 11 -2
10 -11 19 -22 20 -16 2 -16 1 -1 -3z"/>
<path d="M3245 1330 c-5 -8 -4 -11 3 -6 12 7 59 -50 54 -66 -1 -5 2 -7 7 -4 5
4 16 -3 25 -15 11 -16 12 -28 5 -43 -9 -19 -9 -19 4 -4 13 17 15 17 31 0 9
-10 14 -22 11 -25 -3 -4 -2 -5 1 -3 11 8 75 -58 69 -71 -3 -9 2 -13 13 -11 12
2 16 -3 15 -17 -1 -11 0 -14 3 -7 3 6 11 9 17 5 7 -4 -28 37 -78 91 -49 54
-108 118 -131 143 -30 34 -43 43 -49 33z"/>
<path d="M3526 1048 c6 -13 115 -106 143 -122 22 -12 9 0 -76 73 -40 34 -70
56 -67 49z"/>
<path d="M7565 970 c-3 -6 1 -7 9 -4 18 7 21 14 7 14 -6 0 -13 -4 -16 -10z"/>
<path d="M3595 930 c3 -5 8 -10 11 -10 2 0 4 5 4 10 0 6 -5 10 -11 10 -5 0 -7
-4 -4 -10z"/>
<path d="M3724 891 c4 -6 16 -16 28 -22 15 -8 18 -8 14 0 -4 6 -16 16 -28 22
-15 8 -18 8 -14 0z"/>
<path d="M3650 860 c0 -5 5 -10 10 -10 6 0 10 5 10 10 0 6 -4 10 -10 10 -5 0
-10 -4 -10 -10z"/>
<path d="M3680 850 c0 -5 5 -10 11 -10 5 0 7 5 4 10 -3 6 -8 10 -11 10 -2 0
-4 -4 -4 -10z"/>
<path d="M3823 825 c15 -14 33 -25 40 -25 6 0 -4 11 -23 25 -43 32 -53 32 -17
0z"/>
<path d="M3880 796 c0 -3 9 -10 20 -16 11 -6 20 -8 20 -6 0 3 -9 10 -20 16
-11 6 -20 8 -20 6z"/>
<path d="M3751 773 c9 -10 8 -13 -5 -13 -10 0 -14 -5 -11 -10 4 -6 10 -8 15
-5 4 3 11 -1 13 -7 3 -7 6 -4 6 7 1 15 4 16 13 7 7 -7 15 -12 20 -12 12 0 -36
46 -49 46 -9 1 -10 -3 -2 -13z"/>
<path d="M3854 776 c1 -8 5 -18 8 -22 4 -3 5 1 4 10 -1 8 -5 18 -8 22 -4 3 -5
-1 -4 -10z"/>
<path d="M3965 750 c3 -5 14 -10 23 -10 15 0 15 2 2 10 -20 13 -33 13 -25 0z"/>
<path d="M3815 709 c-3 -4 2 -6 10 -5 21 3 28 13 10 13 -9 0 -18 -4 -20 -8z"/>
<path d="M4180 661 c8 -4 29 -11 45 -15 19 -4 25 -3 15 3 -8 4 -28 11 -45 15
-19 4 -25 3 -15 -3z"/>
<path d="M3960 650 c0 -13 49 -44 57 -36 3 3 1 6 -6 6 -7 0 -9 5 -5 12 4 7 3
8 -4 4 -7 -4 -17 -4 -23 0 -8 4 -7 9 2 15 11 7 10 9 -3 9 -10 0 -18 -4 -18
-10z"/>
<path d="M4033 598 c1 -15 6 -23 11 -18 4 4 4 16 -2 26 -9 16 -10 14 -9 -8z"/>
<path d="M4355 610 c11 -5 27 -9 35 -9 9 0 8 4 -5 9 -11 5 -27 9 -35 9 -9 0
-8 -4 5 -9z"/>
<path d="M4060 601 c0 -6 4 -13 10 -16 6 -3 7 1 4 9 -7 18 -14 21 -14 7z"/>
<path d="M4120 556 c7 -7 13 -7 20 0 6 6 3 10 -10 10 -13 0 -16 -4 -10 -10z"/>
<path d="M4588 563 c6 -2 18 -2 25 0 6 3 1 5 -13 5 -14 0 -19 -2 -12 -5z"/>
<path d="M4648 553 c7 -3 16 -2 19 1 4 3 -2 6 -13 5 -11 0 -14 -3 -6 -6z"/>
<path d="M5323 553 c9 -2 25 -2 35 0 9 3 1 5 -18 5 -19 0 -27 -2 -17 -5z"/>
<path d="M4176 523 c9 -36 10 -38 16 -16 3 10 -1 24 -9 32 -12 10 -13 8 -7
-16z"/>
<path d="M5228 543 c6 -2 18 -2 25 0 6 3 1 5 -13 5 -14 0 -19 -2 -12 -5z"/>
<path d="M4300 519 c0 -5 5 -7 10 -4 6 3 10 8 10 11 0 2 -4 4 -10 4 -5 0 -10
-5 -10 -11z"/>
<path d="M6721 521 c-8 -6 -9 -11 -3 -15 6 -3 14 -1 17 5 9 14 2 20 -14 10z"/>
<path d="M4213 495 c6 -7 15 -11 20 -8 13 8 7 19 -13 20 -16 1 -17 -1 -7 -12z"/>
<path d="M4234 468 c-4 -7 -3 -10 1 -5 5 4 17 0 27 -10 20 -18 25 -4 6 15 -15
15 -25 15 -34 0z"/>
<path d="M4357 473 c-13 -12 -7 -22 12 -20 15 1 17 4 9 14 -12 15 -13 15 -21
6z"/>
<path d="M4208 451 c4 -12 11 -22 15 -22 4 1 15 1 25 2 13 0 14 2 2 6 -8 3
-23 13 -33 21 -17 15 -17 14 -9 -7z"/>
<path d="M4308 459 c-10 -5 -18 -17 -18 -26 0 -13 3 -13 15 -3 13 11 18 10 30
-6 13 -17 14 -16 4 14 -6 17 -12 32 -12 32 -1 0 -10 -5 -19 -11z"/>
<path d="M4356 402 c-3 -5 1 -9 9 -9 8 0 12 4 9 9 -3 4 -7 8 -9 8 -2 0 -6 -4
-9 -8z"/>
<path d="M4398 386 c5 -18 7 -18 10 -3 2 10 8 14 15 11 7 -4 8 -3 4 1 -17 19
-35 13 -29 -9z"/>
<path d="M4460 400 c-13 -8 -12 -10 3 -10 9 0 17 5 17 10 0 12 -1 12 -20 0z"/>
<path d="M4559 383 c-13 -16 -12 -17 4 -4 16 13 21 21 13 21 -2 0 -10 -8 -17
-17z"/>
<path d="M5695 330 c-3 -5 -1 -10 4 -10 6 0 11 5 11 10 0 6 -2 10 -4 10 -3 0
-8 -4 -11 -10z"/>
<path d="M5249 312 c-16 -11 -17 -16 -6 -32 13 -22 43 -26 51 -7 3 9 9 7 19
-6 14 -17 15 -17 21 0 4 10 3 19 -3 21 -12 4 -3 32 11 32 5 0 6 -6 2 -12 -4
-7 -4 -10 1 -6 4 4 17 3 29 -3 20 -9 20 -9 3 5 -18 14 -18 14 0 18 10 3 1 5
-19 5 -26 1 -38 -3 -38 -13 0 -16 -36 -37 -53 -30 -7 2 -4 5 6 5 11 1 15 6 11
13 -4 6 -3 8 3 5 6 -4 13 -1 16 6 6 17 -29 17 -54 -1z"/>
<path d="M5152 297 c1 -15 9 -23 20 -23 23 0 23 8 -2 29 -19 16 -20 16 -18 -6z"/>
<path d="M5193 313 c9 -2 17 -10 17 -18 0 -7 8 -16 18 -20 13 -5 14 -3 5 6 -6
6 -9 18 -6 25 4 10 -3 14 -23 13 -17 -1 -22 -3 -11 -6z"/>
<path d="M5580 301 c0 -6 9 -9 19 -8 11 0 17 5 15 9 -7 11 -34 10 -34 -1z"/>
<path d="M5400 280 c0 -5 5 -10 11 -10 5 0 7 5 4 10 -3 6 -8 10 -11 10 -2 0
-4 -4 -4 -10z"/>
</g>
</svg>
